{
   "accessors" : 
   [
      {
         "bufferView" : 0,
         "byteOffset" : 0,
         "componentType" : 5126,
         "count" : 23086,
         "max" : [ 9.1400003433227539, 13.715999603271484, 3.9600000381469727 ],
         "min" : [ 0.0, 0.0, 1.0576560497283936 ],
         "type" : "VEC3"
      },
      {
         "bufferView" : 1,
         "byteOffset" : 0,
         "componentType" : 5126,
         "count" : 23086,
         "normalized" : false,
         "type" : "VEC2"
      },
      {
         "bufferView" : 2,
         "byteOffset" : 0,
         "componentType" : 5125,
         "count" : 133848,
         "type" : "SCALAR"
      },
      {
         "bufferView" : 4,
         "byteOffset" : 0,
         "componentType" : 5126,
         "count" : 2,
         "max" : [ 0.0, 1.0, 0.0 ],
         "min" : [ 0.0, 0.0, 0.0 ],
         "type" : "VEC3"
      },
      {
         "bufferView" : 5,
         "byteOffset" : 0,
         "componentType" : 5126,
         "count" : 2,
         "normalized" : false,
         "type" : "VEC2"
      },
      {
         "bufferView" : 6,
         "byteOffset" : 0,
         "componentType" : 5125,
         "count" : 2,
         "type" : "SCALAR"
      },
      {
         "bufferView" : 7,
         "byteOffset" : 0,
         "componentType" : 5126,
         "count" : 2,
         "max" : [ 0.0, 1.0, 0.0 ],
         "min" : [ 0.0, 0.0, 0.0 ],
         "type" : "VEC3"
      },
      {
         "bufferView" : 8,
         "byteOffset" : 0,
         "componentType" : 5126,
         "count" : 2,
         "normalized" : false,
         "type" : "VEC2"
      },
      {
         "bufferView" : 9,
         "byteOffset" : 0,
         "componentType" : 5125,
         "count" : 2,
         "type" : "SCALAR"
      },
      {
         "bufferView" : 10,
         "byteOffset" : 0,
         "componentType" : 5126,
         "count" : 2,
         "max" : [ 0.0, 1.0, 0.0 ],
         "min" : [ 0.0, 0.0, 0.0 ],
         "type" : "VEC3"
      },
      {
         "bufferView" : 11,
         "byteOffset" : 0,
         "componentType" : 5126,
         "count" : 2,
         "normalized" : false,
         "type" : "VEC2"
      },
      {
         "bufferView" : 12,
         "byteOffset" : 0,
         "componentType" : 5125,
         "count" : 2,
         "type" : "SCALAR"
      },
      {
         "bufferView" : 13,
         "byteOffset" : 0,
         "componentType" : 5126,
         "count" : 17,
         "max" : [ 0.40000000596046448, 0.5, 0.40000000596046448 ],
         "min" : [ -0.40000000596046448, -0.5, -0.40000000596046448 ],
         "type" : "VEC3"
      },
      {
         "bufferView" : 14,
         "byteOffset" : 0,
         "componentType" : 5125,
         "count" : 90,
         "type" : "SCALAR"
      },
      {
         "bufferView" : 15,
         "byteOffset" : 0,
         "componentType" : 5126,
         "count" : 17,
         "max" : [ 0.40000000596046448, 0.5, 0.40000000596046448 ],
         "min" : [ -0.40000000596046448, -0.5, -0.40000000596046448 ],
         "type" : "VEC3"
      },
      {
         "bufferView" : 16,
         "byteOffset" : 0,
         "componentType" : 5125,
         "count" : 90,
         "type" : "SCALAR"
      },
      {
         "bufferView" : 17,
         "byteOffset" : 0,
         "componentType" : 5126,
         "count" : 17,
         "max" : [ 0.40000000596046448, 0.5, 0.40000000596046448 ],
         "min" : [ -0.40000000596046448, -0.5, -0.40000000596046448 ],
         "type" : "VEC3"
      },
      {
         "bufferView" : 18,
         "byteOffset" : 0,
         "componentType" : 5125,
         "count" : 90,
         "type" : "SCALAR"
      },
      {
         "bufferView" : 19,
         "byteOffset" : 0,
         "componentType" : 5126,
         "count" : 14,
         "max" : [ 1.1411700248718262, 1.0264400243759155, 0.0 ],
         "min" : [ 0.1519400030374527, -0.071429997682571411, 0.0 ],
         "type" : "VEC3"
      },
      {
         "bufferView" : 20,
         "byteOffset" : 0,
         "componentType" : 5125,
         "count" : 36,
         "type" : "SCALAR"
      },
      {
         "bufferView" : 21,
         "byteOffset" : 0,
         "componentType" : 5126,
         "count" : 12,
         "max" : [ 1.1452100276947021, 1.0257099866867065, 0.0 ],
         "min" : [ 0.15284000337123871, -0.071429997682571411, 0.0 ],
         "type" : "VEC3"
      },
      {
         "bufferView" : 22,
         "byteOffset" : 0,
         "componentType" : 5125,
         "count" : 30,
         "type" : "SCALAR"
      },
      {
         "bufferView" : 23,
         "byteOffset" : 0,
         "componentType" : 5126,
         "count" : 11,
         "max" : [ 1.0399999618530273, 1.0261499881744385, 0.0 ],
         "min" : [ 0.17395000159740448, -0.071860000491142273, 0.0 ],
         "type" : "VEC3"
      },
      {
         "bufferView" : 24,
         "byteOffset" : 0,
         "componentType" : 5125,
         "count" : 27,
         "type" : "SCALAR"
      }
   ],
   "asset" : 
   {
      "generator" : "VTK",
      "version" : "2.0"
   },
   "bufferViews" : 
   [
      {
         "buffer" : 0,
         "byteLength" : 277032,
         "byteOffset" : 0
      },
      {
         "buffer" : 1,
         "byteLength" : 184688,
         "byteOffset" : 0
      },
      {
         "buffer" : 2,
         "byteLength" : 535392,
         "byteOffset" : 0
      },
      {
         "buffer" : 3,
         "byteLength" : 2134,
         "byteOffset" : 0
      },
      {
         "buffer" : 4,
         "byteLength" : 24,
         "byteOffset" : 0
      },
      {
         "buffer" : 5,
         "byteLength" : 16,
         "byteOffset" : 0
      },
      {
         "buffer" : 6,
         "byteLength" : 8,
         "byteOffset" : 0
      },
      {
         "buffer" : 7,
         "byteLength" : 24,
         "byteOffset" : 0
      },
      {
         "buffer" : 8,
         "byteLength" : 16,
         "byteOffset" : 0
      },
      {
         "buffer" : 9,
         "byteLength" : 8,
         "byteOffset" : 0
      },
      {
         "buffer" : 10,
         "byteLength" : 24,
         "byteOffset" : 0
      },
      {
         "buffer" : 11,
         "byteLength" : 16,
         "byteOffset" : 0
      },
      {
         "buffer" : 12,
         "byteLength" : 8,
         "byteOffset" : 0
      },
      {
         "buffer" : 13,
         "byteLength" : 204,
         "byteOffset" : 0
      },
      {
         "buffer" : 14,
         "byteLength" : 360,
         "byteOffset" : 0
      },
      {
         "buffer" : 15,
         "byteLength" : 204,
         "byteOffset" : 0
      },
      {
         "buffer" : 16,
         "byteLength" : 360,
         "byteOffset" : 0
      },
      {
         "buffer" : 17,
         "byteLength" : 204,
         "byteOffset" : 0
      },
      {
         "buffer" : 18,
         "byteLength" : 360,
         "byteOffset" : 0
      },
      {
         "buffer" : 19,
         "byteLength" : 168,
         "byteOffset" : 0
      },
      {
         "buffer" : 20,
         "byteLength" : 144,
         "byteOffset" : 0
      },
      {
         "buffer" : 21,
         "byteLength" : 144,
         "byteOffset" : 0
      },
      {
         "buffer" : 22,
         "byteLength" : 120,
         "byteOffset" : 0
      },
      {
         "buffer" : 23,
         "byteLength" : 132,
         "byteOffset" : 0
      },
      {
         "buffer" : 24,
         "byteLength" : 108,
         "byteOffset" : 0
      }
   ],
   "buffers" : 
   [
      {
         "byteLength" : 277032,
         "uri" : "buffer1699613.bin"
      },
      {
         "byteLength" : 184688,
         "uri" : "buffer2401351.bin"
      },
      {
         "byteLength" : 535392,
         "uri" : "buffer2519691.bin"
      },
      {
         "byteLength" : 2134,
         "uri" : "buffer2520144.bin"
      },
      {
         "byteLength" : 24,
         "uri" : "buffer209704.bin"
      },
      {
         "byteLength" : 16,
         "uri" : "buffer209708.bin"
      },
      {
         "byteLength" : 8,
         "uri" : "buffer2520459.bin"
      },
      {
         "byteLength" : 24,
         "uri" : "buffer209704.bin"
      },
      {
         "byteLength" : 16,
         "uri" : "buffer209708.bin"
      },
      {
         "byteLength" : 8,
         "uri" : "buffer2520709.bin"
      },
      {
         "byteLength" : 24,
         "uri" : "buffer209704.bin"
      },
      {
         "byteLength" : 16,
         "uri" : "buffer209708.bin"
      },
      {
         "byteLength" : 8,
         "uri" : "buffer2520959.bin"
      },
      {
         "byteLength" : 204,
         "uri" : "buffer209579.bin"
      },
      {
         "byteLength" : 360,
         "uri" : "buffer2521344.bin"
      },
      {
         "byteLength" : 204,
         "uri" : "buffer209579.bin"
      },
      {
         "byteLength" : 360,
         "uri" : "buffer2521729.bin"
      },
      {
         "byteLength" : 204,
         "uri" : "buffer209579.bin"
      },
      {
         "byteLength" : 360,
         "uri" : "buffer2522114.bin"
      },
      {
         "byteLength" : 168,
         "uri" : "buffer276746.bin"
      },
      {
         "byteLength" : 144,
         "uri" : "buffer2522475.bin"
      },
      {
         "byteLength" : 144,
         "uri" : "buffer276947.bin"
      },
      {
         "byteLength" : 120,
         "uri" : "buffer2522836.bin"
      },
      {
         "byteLength" : 132,
         "uri" : "buffer277145.bin"
      },
      {
         "byteLength" : 108,
         "uri" : "buffer2523197.bin"
      }
   ],
   "cameras" : 
   [
      {
         "perspective" : 
         {
            "aspectRatio" : 1.9009779951100245,
            "yfov" : 30.0,
            "zfar" : 52.511621687495889,
            "znear" : 16.361891940061803
         },
         "type" : "perspective"
      },
      {
         "perspective" : 
         {
            "aspectRatio" : 1.0,
            "yfov" : 30.0,
            "zfar" : 11.080937715053174,
            "znear" : 3.2184361099877408
         },
         "type" : "perspective"
      }
   ],
   "images" : 
   [
      {
         "bufferView" : 3,
         "mimeType" : "image/png"
      }
   ],
   "materials" : 
   [
      {
         "pbrMetallicRoughness" : 
         {
            "baseColorFactor" : [ 1.0, 1.0, 1.0, 1.0 ],
            "baseColorTexture" : 
            {
               "index" : 0,
               "texCoord" : 0
            },
            "metallicFactor" : 0.0,
            "roughnessFactor" : 1.0
         }
      },
      {
         "pbrMetallicRoughness" : 
         {
            "baseColorFactor" : [ 1.0, 0.0, 0.0, 1.0 ],
            "metallicFactor" : 0.0,
            "roughnessFactor" : 1.0
         }
      },
      {
         "pbrMetallicRoughness" : 
         {
            "baseColorFactor" : [ 1.0, 1.0, 0.0, 1.0 ],
            "metallicFactor" : 0.0,
            "roughnessFactor" : 1.0
         }
      },
      {
         "pbrMetallicRoughness" : 
         {
            "baseColorFactor" : [ 0.0, 1.0, 0.0, 1.0 ],
            "metallicFactor" : 0.0,
            "roughnessFactor" : 1.0
         }
      },
      {
         "pbrMetallicRoughness" : 
         {
            "baseColorFactor" : [ 1.0, 0.0, 0.0, 1.0 ],
            "metallicFactor" : 0.0,
            "roughnessFactor" : 1.0
         }
      },
      {
         "pbrMetallicRoughness" : 
         {
            "baseColorFactor" : [ 1.0, 1.0, 0.0, 1.0 ],
            "metallicFactor" : 0.0,
            "roughnessFactor" : 1.0
         }
      },
      {
         "pbrMetallicRoughness" : 
         {
            "baseColorFactor" : [ 0.0, 1.0, 0.0, 1.0 ],
            "metallicFactor" : 0.0,
            "roughnessFactor" : 1.0
         }
      },
      {
         "pbrMetallicRoughness" : 
         {
            "baseColorFactor" : [ 1.0, 1.0, 1.0, 1.0 ],
            "metallicFactor" : 0.0,
            "roughnessFactor" : 1.0
         }
      },
      {
         "pbrMetallicRoughness" : 
         {
            "baseColorFactor" : [ 1.0, 1.0, 1.0, 1.0 ],
            "metallicFactor" : 0.0,
            "roughnessFactor" : 1.0
         }
      },
      {
         "pbrMetallicRoughness" : 
         {
            "baseColorFactor" : [ 1.0, 1.0, 1.0, 1.0 ],
            "metallicFactor" : 0.0,
            "roughnessFactor" : 1.0
         }
      }
   ],
   "meshes" : 
   [
      {
         "primitives" : 
         [
            {
               "attributes" : 
               {
                  "POSITION" : 0,
                  "TEXCOORD_0" : 1
               },
               "indices" : 2,
               "material" : 0,
               "mode" : 4
            }
         ]
      },
      {
         "primitives" : 
         [
            {
               "attributes" : 
               {
                  "POSITION" : 3,
                  "TEXCOORD_0" : 4
               },
               "indices" : 5,
               "material" : 1,
               "mode" : 1
            }
         ]
      },
      {
         "primitives" : 
         [
            {
               "attributes" : 
               {
                  "POSITION" : 6,
                  "TEXCOORD_0" : 7
               },
               "indices" : 8,
               "material" : 2,
               "mode" : 1
            }
         ]
      },
      {
         "primitives" : 
         [
            {
               "attributes" : 
               {
                  "POSITION" : 9,
                  "TEXCOORD_0" : 10
               },
               "indices" : 11,
               "material" : 3,
               "mode" : 1
            }
         ]
      },
      {
         "primitives" : 
         [
            {
               "attributes" : 
               {
                  "POSITION" : 12
               },
               "indices" : 13,
               "material" : 4,
               "mode" : 4
            }
         ]
      },
      {
         "primitives" : 
         [
            {
               "attributes" : 
               {
                  "POSITION" : 14
               },
               "indices" : 15,
               "material" : 5,
               "mode" : 4
            }
         ]
      },
      {
         "primitives" : 
         [
            {
               "attributes" : 
               {
                  "POSITION" : 16
               },
               "indices" : 17,
               "material" : 6,
               "mode" : 4
            }
         ]
      },
      {
         "primitives" : 
         [
            {
               "attributes" : 
               {
                  "POSITION" : 18
               },
               "indices" : 19,
               "material" : 7,
               "mode" : 4
            }
         ]
      },
      {
         "primitives" : 
         [
            {
               "attributes" : 
               {
                  "POSITION" : 20
               },
               "indices" : 21,
               "material" : 8,
               "mode" : 4
            }
         ]
      },
      {
         "primitives" : 
         [
            {
               "attributes" : 
               {
                  "POSITION" : 22
               },
               "indices" : 23,
               "material" : 9,
               "mode" : 4
            }
         ]
      }
   ],
   "nodes" : 
   [
      {
         "matrix" : 
         [
            1.0,
            0.0,
            0.0,
            0.0,
            0.0,
            1.0,
            0.0,
            0.0,
            0.0,
            0.0,
            1.0,
            0.0,
            0.0,
            0.0,
            0.0,
            1.0
         ],
         "mesh" : 0
      },
      {
         "camera" : 0,
         "children" : [ 0 ],
         "matrix" : 
         [
            -0.84469248616107329,
            0.12048455454595439,
            -0.52151517325854302,
            0.0,
            -0.50202637436036945,
            -0.51627217654802282,
            0.69385341331505279,
            0.0,
            -0.18564515417755312,
            0.847907136329345,
            0.49657765242926749,
            0.0,
            7.7688933515582832,
            0.86272684712088044,
            -35.95231291120129,
            1.0
         ],
         "name" : "Camera Node"
      },
      {
         "matrix" : 
         [
            1.7763568658700301e-16,
            -0.80000001192092896,
            0.0,
            0.0,
            0.80000001192092896,
            1.7763568658700301e-16,
            0.0,
            0.0,
            0.0,
            0.0,
            0.80000001192092896,
            0.0,
            0.0,
            0.0,
            0.0,
            1.0
         ],
         "mesh" : 1
      },
      {
         "matrix" : 
         [
            0.80000001192092896,
            0.0,
            0.0,
            0.0,
            0.0,
            0.80000001192092896,
            0.0,
            0.0,
            0.0,
            0.0,
            0.80000001192092896,
            0.0,
            0.0,
            0.0,
            0.0,
            1.0
         ],
         "mesh" : 2
      },
      {
         "matrix" : 
         [
            0.80000001192092896,
            0.0,
            0.0,
            0.0,
            0.0,
            1.7763568658700301e-16,
            0.80000001192092896,
            0.0,
            0.0,
            -0.80000001192092896,
            1.7763568658700301e-16,
            0.0,
            0.0,
            0.0,
            0.0,
            1.0
         ],
         "mesh" : 3
      },
      {
         "matrix" : 
         [
            4.4408921646750752e-17,
            -0.20000000298023224,
            0.0,
            0.0,
            0.20000000298023224,
            4.4408921646750752e-17,
            0.0,
            0.0,
            0.0,
            0.0,
            0.20000000298023224,
            0.0,
            0.89999999850988388,
            1.9984014410165593e-16,
            0.0,
            1.0
         ],
         "mesh" : 4
      },
      {
         "matrix" : 
         [
            0.20000000298023224,
            0.0,
            0.0,
            0.0,
            0.0,
            0.20000000298023224,
            0.0,
            0.0,
            0.0,
            0.0,
            0.20000000298023224,
            0.0,
            0.0,
            0.89999999850988388,
            0.0,
            1.0
         ],
         "mesh" : 5
      },
      {
         "matrix" : 
         [
            0.20000000298023224,
            0.0,
            0.0,
            0.0,
            0.0,
            4.4408921646750752e-17,
            0.20000000298023224,
            0.0,
            0.0,
            -0.20000000298023224,
            4.4408921646750752e-17,
            0.0,
            0.0,
            1.9984014410165593e-16,
            0.89999999850988388,
            1.0
         ],
         "mesh" : 6
      },
      {
         "matrix" : 
         [
            -0.15828182563721852,
            -0.11321606112949129,
            -0.046140961925011478,
            0.0,
            0.022680698312183518,
            -0.10136368422386839,
            0.1709122307991108,
            0.0,
            -0.12013513553125822,
            0.13002895144920651,
            0.093059240207509913,
            0.0,
            0.80000001192092896,
            -3.5527137317400601e-16,
            0.0,
            1.0
         ],
         "mesh" : 7
      },
      {
         "matrix" : 
         [
            -0.16190435708217304,
            -0.10876147152622477,
            -0.044248419874062396,
            0.0,
            0.03104618380831033,
            -0.11233946341327188,
            0.16252993762089393,
            0.0,
            -0.11323919295386087,
            0.12470280054417887,
            0.10782438456902929,
            0.0,
            0.0,
            0.80000001192092896,
            0.0,
            1.0
         ],
         "mesh" : 8
      },
      {
         "matrix" : 
         [
            -0.16639956936928696,
            -0.10387266384190902,
            -0.039008386434131528,
            0.0,
            0.012783364644474467,
            -0.087792465166326633,
            0.1792458363267572,
            0.0,
            -0.11021692290286084,
            0.14663885555506084,
            0.07968235149278502,
            0.0,
            0.0,
            -3.5527137317400601e-16,
            0.80000001192092896,
            1.0
         ],
         "mesh" : 9
      },
      {
         "camera" : 1,
         "children" : [ 2, 3, 4, 5, 6, 7, 8, 9, 10 ],
         "matrix" : 
         [
            -0.84469248616107329,
            0.12048455454595439,
            -0.52151517325854302,
            0.0,
            -0.50202637436036945,
            -0.51627217654802282,
            0.69385341331505279,
            0.0,
            -0.18564515417755312,
            0.847907136329345,
            0.49657765242926749,
            0.0,
            1.1102230246251565e-16,
            0.0,
            -6.6921304299024635,
            1.0
         ],
         "name" : "Camera Node"
      }
   ],
   "samplers" : 
   [
      {
         "magFilter" : 9728,
         "minFilter" : 9728,
         "wrapS" : 33071,
         "wrapT" : 33071
      }
   ],
   "scene" : 0,
   "scenes" : 
   [
      {
         "name" : "Layer 0",
         "nodes" : [ 1, 11 ]
      }
   ],
   "textures" : 
   [
      {
         "sampler" : 0,
         "source" : 0
      }
   ]
}